<svg width="50" height="50" viewBox="0 0 50 50" fill="none" xmlns="http://www.w3.org/2000/svg">
<rect width="50" height="50" rx="25" fill="black"/>
<path d="M23.269 31.9814C18.5932 31.9814 14.7891 28.1772 14.7891 23.5014C14.7891 18.8256 18.5932 15.0215 23.269 15.0215C27.9448 15.0215 31.7489 18.8256 31.7489 23.5014C31.7489 28.1772 27.9448 31.9814 23.269 31.9814ZM23.269 17.3562C19.8808 17.3562 17.1238 20.1128 17.1238 23.5014C17.1238 26.89 19.8808 29.6466 23.269 29.6466C26.6572 29.6466 29.4142 26.8896 29.4142 23.5014C29.4142 20.1132 26.6572 17.3562 23.269 17.3562Z" fill="white"/>
<path d="M34.403 32.8987L31.2106 29.7063C31.1587 29.6544 31.1034 29.6089 31.0456 29.5684C30.5621 30.2088 29.9896 30.7788 29.3467 31.2589C29.388 31.3188 29.4349 31.3757 29.488 31.4289L32.6804 34.6213C33.1563 35.0972 33.9275 35.0972 34.403 34.6213C34.8785 34.1458 34.8785 33.3742 34.403 32.8987Z" fill="white"/>
</svg>
